<svg width="23" height="27" viewBox="0 0 23 27" fill="none" xmlns="http://www.w3.org/2000/svg">
<path d="M0.23097 15.239C0.190122 13.5181 0.553087 11.8116 1.29076 10.2563C1.79278 9.24439 2.5578 8.3862 3.50561 7.7717C4.45342 7.1572 5.5491 6.80903 6.67777 6.76368C7.29501 6.7326 7.91202 6.82936 8.49012 7.04789C9.25969 7.31409 10.0243 7.5943 10.7918 7.8625C11.2518 7.99785 11.7462 7.95128 12.1729 7.7324C13.1824 7.27273 14.2517 6.95773 15.3492 6.79671C16.3574 6.65582 17.3846 6.75646 18.3462 7.09035C19.3079 7.42423 20.1764 7.9818 20.8803 8.71714C21.0074 8.84423 21.1195 8.98633 21.2466 9.11743C21.4167 9.28755 21.4237 9.40164 21.1866 9.54375C20.476 9.96828 19.8765 10.5555 19.4373 11.257C18.9052 12.0596 18.6109 12.9963 18.5886 13.959C18.5123 14.8377 18.6145 15.7228 18.8889 16.561C19.4655 17.9059 20.4913 19.0089 21.791 19.6813C22.1553 19.8905 22.1613 19.8895 22.0102 20.2667C21.365 21.9903 20.4466 23.5987 19.2902 25.0303C18.7653 25.6803 18.1154 26.2183 17.3787 26.6125C16.8682 26.8696 16.3032 26.9998 15.7316 26.9922C15.16 26.9845 14.5987 26.8392 14.0953 26.5684C13.3965 26.2141 12.6292 26.0154 11.8463 25.9861C11.0633 25.9567 10.2833 26.0973 9.55991 26.3983C8.88742 26.7043 8.16815 26.8948 7.43233 26.9617C7.06864 27.0001 6.70094 26.964 6.35166 26.8556C6.00238 26.7472 5.67886 26.5688 5.40082 26.3312C2.7944 24.0099 1.04995 20.8751 0.451134 17.4366C0.400714 17.1959 0.362636 16.9527 0.337049 16.7081C0.293016 16.1697 0.259991 15.6323 0.23097 15.239Z" fill="#282356"/>
<path d="M16.5611 0.715402C16.4975 2.26068 15.9187 3.74024 14.9169 4.91853C14.454 5.41529 13.8937 5.81129 13.2709 6.08179C12.6481 6.3523 11.9762 6.4915 11.2972 6.4907C11.078 6.49971 11.074 6.3616 11.082 6.21249C11.1147 4.91649 11.5517 3.66312 12.332 2.62783C13.3282 1.40389 14.7351 0.583452 16.2909 0.319107C16.7022 0.22904 16.4991 0.559286 16.5611 0.715402Z" fill="#282356"/>
</svg>
