<svg width="21" height="24" viewBox="0 0 21 24" fill="none" xmlns="http://www.w3.org/2000/svg">
<path d="M0.0186014 12.2693V2.42889C0.0186014 2.19512 -0.0730738 1.86051 0.150614 1.767C0.352299 1.68082 0.49898 1.99894 0.652077 2.15203C3.91816 5.40956 7.18088 8.66984 10.4402 11.9329C10.817 12.3096 10.817 12.3096 10.4402 12.6874C7.1326 15.9901 3.82465 19.2944 0.516398 22.6002C0.408221 22.7084 0.309212 22.9339 0.144197 22.8578C-0.0208189 22.7817 0.0186014 22.547 0.0186014 22.3728C0.0186014 19.0053 0.0186014 15.6375 0.0186014 12.2693Z" fill="#282356"/>
<path d="M14.869 8.17582C14.8228 8.24434 14.7723 8.30987 14.7178 8.37201C13.801 9.30159 12.8742 10.2257 11.9611 11.1626C11.7704 11.3588 11.6448 11.3249 11.4688 11.1479C8.09391 7.76512 4.71781 4.38505 1.3405 1.00773C1.26532 0.93256 1.1214 0.865637 1.1819 0.738208C1.24241 0.61078 1.38542 0.671285 1.49176 0.675869C1.78295 0.692239 2.06593 0.778391 2.31684 0.927059C6.41167 3.255 10.5065 5.58538 14.6013 7.91821C14.7077 7.97597 14.8406 8.00806 14.869 8.17582Z" fill="#282356"/>
<path d="M1.4423 23.9486C1.34237 23.9256 1.21036 23.9889 1.17278 23.8615C1.14069 23.7505 1.25803 23.6891 1.32404 23.6213C2.16562 22.776 3.00873 21.932 3.85336 21.0892L11.3643 13.5783C11.7228 13.2198 11.7237 13.2198 12.0895 13.5893C12.9384 14.4449 13.7861 15.3005 14.6325 16.1562C14.9543 16.4825 14.9561 16.4899 14.5665 16.7117C10.4754 19.0415 6.3839 21.37 2.29213 23.6974C2.03207 23.8456 1.74118 23.9316 1.4423 23.9486Z" fill="#282356"/>
<path d="M20.9307 12.326C20.9037 12.5901 20.8105 12.8431 20.6599 13.0616C20.5093 13.2802 20.306 13.4572 20.0689 13.5765C19.1916 14.0899 18.3051 14.5849 17.4223 15.0919C17.0849 15.2853 16.7439 15.4687 16.4138 15.6722C16.3783 15.7022 16.3371 15.7248 16.2926 15.7387C16.2482 15.7525 16.2014 15.7573 16.1551 15.7528C16.1088 15.7482 16.0639 15.7345 16.023 15.7123C15.9821 15.6901 15.946 15.6599 15.9169 15.6236C14.892 14.5889 13.8613 13.5594 12.8247 12.5351C12.6414 12.3572 12.6698 12.2334 12.8376 12.0703C13.8766 11.0508 14.9122 10.0271 15.9445 8.99914C15.9996 8.93316 16.078 8.89106 16.1635 8.88167C16.2489 8.87227 16.3347 8.8963 16.4028 8.94872C17.6212 9.64912 18.8487 10.3348 20.0643 11.0398C20.3092 11.1589 20.5183 11.3406 20.6705 11.5664C20.8226 11.7923 20.9124 12.0543 20.9307 12.326Z" fill="#282356"/>
</svg>
