<svg width="38" height="42" viewBox="0 0 38 42" fill="none" xmlns="http://www.w3.org/2000/svg">
<path d="M28.8765 19.1904C27.0877 19.1892 25.3394 18.6569 23.8527 17.6609C22.3659 16.6648 21.2074 15.2496 20.5237 13.5943C19.84 11.939 19.6618 10.1179 20.0115 8.36115C20.3612 6.60441 21.2232 4.99094 22.4885 3.72471C23.7538 2.45849 25.3656 1.59637 27.1201 1.24734C28.8746 0.898318 30.6931 1.07806 32.3456 1.76384C33.9981 2.44963 35.4105 3.61066 36.4042 5.10016C37.3979 6.58967 37.9282 8.34077 37.9282 10.1321C37.9256 12.5348 36.971 14.8382 35.2738 16.5366C33.5767 18.235 31.2758 19.1895 28.8765 19.1904ZM28.8765 5.10805C27.5464 5.10966 26.2712 5.63949 25.3307 6.58133C24.3902 7.52317 23.8611 8.80012 23.8595 10.1321C23.8585 11.1259 24.152 12.0978 24.7027 12.9246C25.2533 13.7514 26.0366 14.3961 26.9532 14.7771C27.8699 15.1581 28.8788 15.2583 29.8523 15.065C30.8258 14.8717 31.7202 14.3936 32.4223 13.6912C33.1244 12.9888 33.6027 12.0936 33.7967 11.1189C33.9907 10.1442 33.8916 9.13377 33.5121 8.21546C33.1325 7.29716 32.4894 6.51222 31.6643 5.95996C30.8391 5.4077 29.869 5.11292 28.8765 5.11292V5.10805Z" fill="#30BCED"/>
<path d="M10.8291 36.4051C10.0089 36.8296 9.11322 37.0881 8.1932 37.166C7.27318 37.2438 6.34687 37.1394 5.46715 36.8587C4.58743 36.578 3.77154 36.1265 3.06607 35.5301C2.3606 34.9336 1.77937 34.2038 1.35558 33.3824C0.931749 32.5608 0.673687 31.6638 0.596131 30.7423C0.518574 29.8209 0.623043 28.8932 0.903571 28.0123C1.1841 27.1313 1.63519 26.3143 2.23107 25.6079C2.82696 24.9016 3.55597 24.3197 4.37647 23.8955" fill="#30BCED"/>
<path d="M7.26099 29.4905C8.08114 29.0659 8.97677 28.8073 9.89673 28.7294C10.8167 28.6515 11.743 28.7558 12.6227 29.0363C13.5024 29.3169 14.3183 29.7683 15.0238 30.3646C15.7293 30.961 16.3106 31.6906 16.7346 32.512C17.1585 33.3333 17.4168 34.2302 17.4946 35.1514C17.5724 36.0727 17.4683 37.0003 17.1881 37.8812C16.9079 38.7622 16.4572 39.5792 15.8617 40.2857C15.2661 40.9922 14.5375 41.5743 13.7173 41.9988" fill="#30BCED"/>
<path d="M38 41.1088H33.9713V34.0676C33.9713 32.7351 33.4428 31.4573 32.5019 30.5151C31.561 29.5729 30.2849 29.0436 28.9543 29.0436C27.6238 29.0436 26.3477 29.5729 25.4068 30.5151C24.4659 31.4573 23.9374 32.7351 23.9374 34.0676V41.1088H19.9099V34.0676C19.9375 31.6835 20.9026 29.4065 22.5959 27.7304C24.2892 26.0543 26.5741 25.1143 28.955 25.1143C31.3358 25.1143 33.6207 26.0543 35.314 27.7304C37.0073 29.4065 37.9724 31.6835 38 34.0676V41.1088Z" fill="#282356"/>
<path d="M23.9374 24.061H19.9099V41.1089H23.9374V24.061Z" fill="#282356"/>
<path d="M18.0901 11.2534V18.2933H14.0626V11.2534C14.073 10.5869 13.9509 9.92511 13.7034 9.3064C13.4559 8.6877 13.0879 8.12447 12.621 7.64953C12.154 7.17458 11.5974 6.79741 10.9835 6.53995C10.3695 6.2825 9.71062 6.14991 9.04505 6.14991C8.37948 6.14991 7.72055 6.2825 7.10664 6.53995C6.49273 6.79741 5.93609 7.17458 5.46914 7.64953C5.00218 8.12447 4.63424 8.6877 4.38673 9.3064C4.13923 9.92511 4.0171 10.5869 4.02745 11.2534V18.2933H5.91579e-06V11.2534C-0.00215556 9.36431 0.588042 7.52225 1.68733 5.98708C1.79552 5.99561 1.90493 6.00169 2.01434 6.00169C2.54515 6.00226 3.07083 5.89769 3.56112 5.69398C4.0514 5.49028 4.49661 5.19148 4.87112 4.81477C5.44174 4.24668 5.8281 3.51953 5.97979 2.72822C7.34543 2.23725 8.80892 2.08223 10.2469 2.27623C11.6849 2.47023 13.0553 3.00756 14.2425 3.84295C15.4297 4.67833 16.3989 5.78727 17.0685 7.07631C17.7382 8.36534 18.0885 9.79669 18.0901 11.2497V11.2534Z" fill="#282356"/>
<path d="M2.01557 0H2.01435C0.936778 0 0.0632324 0.874771 0.0632324 1.95386V1.95507C0.0632324 3.03416 0.936778 3.90893 2.01435 3.90893H2.01557C3.09314 3.90893 3.96668 3.03416 3.96668 1.95507V1.95386C3.96668 0.874771 3.09314 0 2.01557 0Z" fill="#30BCED"/>
</svg>
