<svg width="72" height="18" viewBox="0 0 72 18" fill="none" xmlns="http://www.w3.org/2000/svg">
<g clip-path="url(#clip0)">
<path d="M17.2087 10.555V17.1581H13.3779V10.555C13.3887 9.92927 13.2733 9.30767 13.0382 8.72646C12.8032 8.14525 12.4533 7.61607 12.009 7.16978C11.5647 6.72349 11.0348 6.36902 10.4502 6.12706C9.86568 5.8851 9.23819 5.76049 8.60436 5.76049C7.97054 5.76049 7.34305 5.8851 6.75851 6.12706C6.17397 6.36902 5.64408 6.72349 5.19974 7.16978C4.7554 7.61607 4.40552 8.14525 4.17049 8.72646C3.93546 9.30767 3.82 9.92927 3.83083 10.555V17.1581H7.87083e-06V10.555C-0.0024245 8.78301 0.558968 7.05504 1.60491 5.6151C1.70818 5.62336 1.81145 5.62887 1.91612 5.62887C2.42087 5.62927 2.92073 5.53124 3.38701 5.34041C3.85329 5.14959 4.27682 4.86972 4.63328 4.51688C5.17627 3.98372 5.54394 3.30137 5.68833 2.55883C6.98739 2.0983 8.37954 1.95286 9.74744 2.13477C11.1153 2.31668 12.4189 2.8206 13.5483 3.60408C14.6776 4.38755 15.5997 5.42761 16.2367 6.63659C16.8738 7.84557 17.2071 9.18805 17.2087 10.5509V10.555Z" fill="#282356"/>
<path d="M27.4703 18C25.7681 18.0003 24.1041 17.5021 22.6888 16.5685C21.2734 15.6349 20.1702 14.3078 19.5189 12.7551C18.8675 11.2023 18.6971 9.49374 19.0293 7.8454C19.3615 6.19706 20.1814 4.68303 21.3852 3.49482C22.589 2.30661 24.1226 1.4976 25.7922 1.17012C27.4617 0.84264 29.1921 1.01141 30.7645 1.65507C32.3369 2.29873 33.6806 3.38838 34.6257 4.78617C35.5708 6.18396 36.0748 7.82711 36.0739 9.50777C36.0702 11.7594 35.1625 13.9177 33.5497 15.5096C31.937 17.1015 29.7507 17.9971 27.4703 18ZM27.4703 4.79109C26.2042 4.79255 24.9904 5.29008 24.0955 6.17443C23.2007 7.05878 22.6978 8.25765 22.6975 9.50777C22.6975 10.4398 22.9774 11.3509 23.5018 12.1259C24.0263 12.9009 24.7717 13.5049 25.6438 13.8616C26.5159 14.2183 27.4756 14.3116 28.4014 14.1298C29.3273 13.9479 30.1777 13.4991 30.8452 12.84C31.5127 12.181 31.9672 11.3413 32.1514 10.4271C32.3356 9.51299 32.241 8.56546 31.8798 7.70435C31.5186 6.84325 30.9068 6.10725 30.1219 5.58943C29.337 5.0716 28.4143 4.79522 27.4703 4.79522V4.79109Z" fill="#282356"/>
<path d="M47.1939 12.7459C46.4136 13.1442 45.5615 13.3868 44.6863 13.4599C43.8111 13.5331 42.9299 13.4352 42.0929 13.172C41.256 12.9088 40.4798 12.4854 39.8086 11.9259C39.1375 11.3665 38.5845 10.682 38.1813 9.91151C37.367 8.35557 37.212 6.54398 37.7503 4.8752C38.2887 3.20641 39.4763 1.81709 41.052 1.01279" fill="#282356"/>
<path d="M43.7998 6.26136C44.5799 5.86284 45.4319 5.61999 46.3071 5.54669C47.1823 5.47339 48.0636 5.57108 48.9006 5.83417C49.7375 6.09727 50.5138 6.52061 51.185 7.08001C51.8562 7.63941 52.4092 8.32391 52.8124 9.0944C53.6267 10.6503 53.7817 12.4619 53.2433 14.1307C52.705 15.7995 51.5174 17.1888 49.9417 17.9931" fill="#282356"/>
<path d="M72 17.1581H68.1678V10.555C68.1786 9.92945 68.0632 9.30803 67.8282 8.72699C67.5933 8.14595 67.2435 7.61692 66.7993 7.17076C66.3551 6.7246 65.8253 6.37024 65.241 6.12835C64.6566 5.88645 64.0293 5.76187 63.3956 5.76187C62.762 5.76187 62.1347 5.88645 61.5503 6.12835C60.966 6.37024 60.4362 6.7246 59.992 7.17076C59.5478 7.61692 59.198 8.14595 58.9631 8.72699C58.7281 9.30803 58.6127 9.92945 58.6235 10.555V17.1581H54.7913V10.555C54.7768 9.43023 54.9886 8.31381 55.4145 7.27051C55.8404 6.2272 56.4719 5.27779 57.2723 4.47734C58.0728 3.6769 59.0262 3.04135 60.0773 2.60758C61.1285 2.1738 62.2564 1.95044 63.3956 1.95044C64.5349 1.95044 65.6628 2.1738 66.7139 2.60758C67.7651 3.04135 68.7185 3.6769 69.519 4.47734C70.3194 5.27779 70.9509 6.2272 71.3768 7.27051C71.8027 8.31381 72.0145 9.43023 72 10.555V17.1581Z" fill="#282356"/>
<path d="M58.6235 1.16849H54.7913V17.1581H58.6235V1.16849Z" fill="#282356"/>
<path d="M3.7722 1.83266C3.7722 0.820509 2.9412 0 1.9161 0C0.891003 0 0.0599976 0.820509 0.0599976 1.83266C0.0599976 2.84481 0.891003 3.66531 1.9161 3.66531C2.9412 3.66531 3.7722 2.84481 3.7722 1.83266Z" fill="#30BCED"/>
</g>
<defs>
<clipPath id="clip0">
<rect width="72" height="18" fill="white"/>
</clipPath>
</defs>
</svg>
