<svg width="43" height="43" viewBox="0 0 43 43" fill="none" xmlns="http://www.w3.org/2000/svg">
<path d="M26.131 13C24.0172 13 22.0713 13.7006 20.4953 14.8705C22.5488 15.6723 24.0811 18.7623 24.0811 22.4596C24.0811 26.1765 22.5338 29.2796 20.4648 30.0625C22.0466 31.2462 24.0034 31.956 26.1316 31.956C31.3664 31.956 35.6096 27.7122 35.6096 22.4774C35.6085 17.2438 31.3653 13 26.131 13Z" fill="#E2E2E2"/>
<path d="M20.4949 14.8706C19.8133 15.3762 19.2048 15.9727 18.6802 16.6382C23.3944 19.0005 22.6415 27.5277 20.4644 30.0625C22.5334 29.2803 24.0806 26.1766 24.0806 22.4597C24.0806 18.7618 22.5489 15.6718 20.4949 14.8706Z" fill="#3DAA9D"/>
<path d="M18.6803 16.6382C17.4131 18.2464 16.6533 20.2705 16.6533 22.4775C16.6533 25.5847 18.1551 28.3341 20.4645 30.0626C22.6416 27.5277 23.3946 19.0005 18.6803 16.6382Z" fill="#79CCB8"/>
<path d="M18.6472 25.1762C19.3782 25.1762 19.9708 23.9602 19.9708 22.4602C19.9708 20.9601 19.3782 19.7441 18.6472 19.7441C17.9163 19.7441 17.3237 20.9601 17.3237 22.4602C17.3237 23.9602 17.9163 25.1762 18.6472 25.1762Z" fill="#525C6B"/>
<path d="M19.4584 21.6672C19.7417 21.6672 19.9715 21.196 19.9715 20.6146C19.9715 20.0333 19.7417 19.562 19.4584 19.562C19.175 19.562 18.9453 20.0333 18.9453 20.6146C18.9453 21.196 19.175 21.6672 19.4584 21.6672Z" fill="white"/>
<path d="M11.7845 28.8456C11.6057 28.8456 11.4388 28.734 11.3767 28.5557C10.8642 27.0786 10.5703 24.8567 10.5703 22.4598C10.5703 20.0642 10.8648 17.8422 11.3767 16.3628C11.455 16.1379 11.6988 16.0188 11.926 16.0965C12.1509 16.1753 12.2706 16.4203 12.1923 16.6458C11.7167 18.0165 11.4331 20.1901 11.4331 22.4593C11.4331 24.7295 11.7167 26.9032 12.1923 28.2716C12.2706 28.4971 12.1515 28.7426 11.926 28.8209C11.8794 28.8376 11.8317 28.8456 11.7845 28.8456Z" fill="#1A171B"/>
<path d="M13.1986 14.6616C10.3272 14.6616 8 18.153 8 22.4601C8 26.7671 10.3272 30.2585 13.1986 30.2585V14.6616Z" fill="#E2E2E2"/>
<path d="M13.1985 30.258C14.3468 30.258 15.2778 26.7665 15.2778 22.4596C15.2778 18.1526 14.3468 14.6611 13.1985 14.6611C12.0501 14.6611 11.1191 18.1526 11.1191 22.4596C11.1191 26.7665 12.0501 30.258 13.1985 30.258Z" fill="#C6C6C6"/>
<circle cx="21.5" cy="21.5" r="21.5" fill="#30BCED" fill-opacity="0.1"/>
</svg>
