<svg width="48" height="48" viewBox="0 0 48 48" fill="none" xmlns="http://www.w3.org/2000/svg">
<circle cx="24" cy="24" r="24" fill="#30BCED"/>
<g clip-path="url(#clip0)">
<path d="M34.5261 18.9788C34.261 17.9935 33.4841 17.2169 32.499 16.9515C30.6992 16.459 23.4998 16.459 23.4998 16.459C23.4998 16.459 16.3005 16.459 14.5007 16.9328C13.5345 17.1979 12.7388 17.9937 12.4736 18.9788C12 20.7785 12 24.5108 12 24.5108C12 24.5108 12 28.262 12.4736 30.0429C12.7389 31.028 13.5156 31.8048 14.5009 32.0701C16.3195 32.5627 23.5 32.5627 23.5 32.5627C23.5 32.5627 30.6992 32.5627 32.499 32.0889C33.4843 31.8238 34.261 31.047 34.5263 30.0618C34.9999 28.262 34.9999 24.5298 34.9999 24.5298C34.9999 24.5298 35.0189 20.7785 34.5261 18.9788Z" fill="white"/>
<path d="M21.2075 27.9592L27.1942 24.5111L21.2075 21.063V27.9592Z" fill="#30BCED"/>
</g>
<defs>
<clipPath id="clip0">
<rect width="23" height="23" fill="white" transform="translate(12 13)"/>
</clipPath>
</defs>
</svg>
